REM DIRINDEX 1\6,1\2\7,1\2\8,1\2\9,1\3\10,1\3\11,1\4\12,1\4\13,1\4\14,1\5\15,1\5\16,1\5\17
REM DIRNAME cjc041,folder01,folder02,folder03,folder04,folder05,folder06,folder07,folder08,folder09,folder10,folder11,folder12,folder13,folder14,folder15,folder16
TITLE ""
FILE "3Q_t2_0707-0722.mp3" MP3
  TRACK 01 AUDIO
    TITLE "7:cjc041_5539"
    INDEX 01 00:00:00
  TRACK 02 AUDIO
    TITLE "0:"
    INDEX 01 00:01:01
  TRACK 03 AUDIO
    TITLE "8:cjc041_5540"
    INDEX 01 00:01:56
  TRACK 04 AUDIO
    TITLE "0:"
    INDEX 01 00:04:13
  TRACK 05 AUDIO
    TITLE "9:cjc041_5541"
    INDEX 01 00:04:66
  TRACK 06 AUDIO
    TITLE "0:"
    INDEX 01 00:05:71
  TRACK 07 AUDIO
    TITLE "7:cjc041_5542"
    INDEX 01 00:07:51
  TRACK 08 AUDIO
    TITLE "0:"
    INDEX 01 00:08:60
  TRACK 09 AUDIO
    TITLE "8:cjc041_5543"
    INDEX 01 00:09:38
  TRACK 10 AUDIO
    TITLE "0:"
    INDEX 01 00:10:47
  TRACK 11 AUDIO
    TITLE "9:cjc041_5544"
    INDEX 01 00:11:25
  TRACK 12 AUDIO
    TITLE "0:"
    INDEX 01 00:12:38
  TRACK 13 AUDIO
    TITLE "7:cjc041_5545"
    INDEX 01 00:14:11
  TRACK 14 AUDIO
    TITLE "0:"
    INDEX 01 00:15:17
  TRACK 15 AUDIO
    TITLE "8:cjc041_5546"
    INDEX 01 00:15:66
  TRACK 16 AUDIO
    TITLE "0:"
    INDEX 01 00:17:06
  TRACK 17 AUDIO
    TITLE "9:cjc041_5547"
    INDEX 01 00:17:53
  TRACK 18 AUDIO
    TITLE "0:"
    INDEX 01 00:18:58
  TRACK 19 AUDIO
    TITLE "7:cjc041_5548"
    INDEX 01 00:20:36
  TRACK 20 AUDIO
    TITLE "0:"
    INDEX 01 00:21:57
  TRACK 21 AUDIO
    TITLE "8:cjc041_5549"
    INDEX 01 00:22:30
  TRACK 22 AUDIO
    TITLE "0:"
    INDEX 01 00:25:45
  TRACK 23 AUDIO
    TITLE "9:cjc041_5550"
    INDEX 01 00:26:15
  TRACK 24 AUDIO
    TITLE "0:"
    INDEX 01 00:27:32
  TRACK 25 AUDIO
    TITLE "7:cjc041_5551"
    INDEX 01 00:29:07
  TRACK 26 AUDIO
    TITLE "0:"
    INDEX 01 00:30:12
  TRACK 27 AUDIO
    TITLE "8:cjc041_5552"
    INDEX 01 00:30:63
  TRACK 28 AUDIO
    TITLE "0:"
    INDEX 01 00:33:01
  TRACK 29 AUDIO
    TITLE "9:cjc041_5553"
    INDEX 01 00:33:50
  TRACK 30 AUDIO
    TITLE "0:"
    INDEX 01 00:34:57
  TRACK 31 AUDIO
    TITLE "7:cjc041_5554"
    INDEX 01 00:36:35
  TRACK 32 AUDIO
    TITLE "0:"
    INDEX 01 00:37:59
  TRACK 33 AUDIO
    TITLE "8:cjc041_5555"
    INDEX 01 00:38:37
  TRACK 34 AUDIO
    TITLE "0:"
    INDEX 01 00:39:56
  TRACK 35 AUDIO
    TITLE "9:cjc041_5556"
    INDEX 01 00:40:32
  TRACK 36 AUDIO
    TITLE "0:"
    INDEX 01 00:41:57
  TRACK 37 AUDIO
    TITLE "7:cjc041_5557"
    INDEX 01 00:43:33
  TRACK 38 AUDIO
    TITLE "0:"
    INDEX 01 00:44:60
  TRACK 39 AUDIO
    TITLE "8:cjc041_5558"
    INDEX 01 00:45:37
  TRACK 40 AUDIO
    TITLE "0:"
    INDEX 01 00:46:43
  TRACK 41 AUDIO
    TITLE "9:cjc041_5559"
    INDEX 01 00:47:23
  TRACK 42 AUDIO
    TITLE "0:"
    INDEX 01 00:48:49
  TRACK 43 AUDIO
    TITLE "7:cjc041_5560"
    INDEX 01 00:50:25
  TRACK 44 AUDIO
    TITLE "0:"
    INDEX 01 00:51:38
  TRACK 45 AUDIO
    TITLE "8:cjc041_5561"
    INDEX 01 00:52:18
  TRACK 46 AUDIO
    TITLE "0:"
    INDEX 01 00:53:25
  TRACK 47 AUDIO
    TITLE "9:cjc041_5562"
    INDEX 01 00:54:03
  TRACK 48 AUDIO
    TITLE "0:"
    INDEX 01 00:55:16
  TRACK 49 AUDIO
    TITLE "7:cjc041_5563"
    INDEX 01 00:56:72
  TRACK 50 AUDIO
    TITLE "0:"
    INDEX 01 00:58:18
  TRACK 51 AUDIO
    TITLE "8:cjc041_5564"
    INDEX 01 00:59:02
  TRACK 52 AUDIO
    TITLE "0:"
    INDEX 01 00:59:71
  TRACK 53 AUDIO
    TITLE "9:cjc041_5565"
    INDEX 01 01:00:49
  TRACK 54 AUDIO
    TITLE "0:"
    INDEX 01 01:01:74
  TRACK 55 AUDIO
    TITLE "7:cjc041_5566"
    INDEX 01 01:03:55
  TRACK 56 AUDIO
    TITLE "0:"
    INDEX 01 01:04:62
  TRACK 57 AUDIO
    TITLE "8:cjc041_5567"
    INDEX 01 01:05:42
  TRACK 58 AUDIO
    TITLE "0:"
    INDEX 01 01:06:47
  TRACK 59 AUDIO
    TITLE "9:cjc041_5568"
    INDEX 01 01:07:25
  TRACK 60 AUDIO
    TITLE "0:"
    INDEX 01 01:08:29
  TRACK 61 AUDIO
    TITLE "7:cjc041_5569"
    INDEX 01 01:10:14
  TRACK 62 AUDIO
    TITLE "0:"
    INDEX 01 01:11:43
  TRACK 63 AUDIO
    TITLE "8:cjc041_5570"
    INDEX 01 01:12:23
  TRACK 64 AUDIO
    TITLE "0:"
    INDEX 01 01:13:30
  TRACK 65 AUDIO
    TITLE "9:cjc041_5571"
    INDEX 01 01:14:06
  TRACK 66 AUDIO
    TITLE "0:"
    INDEX 01 01:15:42
  TRACK 67 AUDIO
    TITLE "7:cjc041_5572"
    INDEX 01 01:17:20
  TRACK 68 AUDIO
    TITLE "0:"
    INDEX 01 01:18:31
  TRACK 69 AUDIO
    TITLE "8:cjc041_5573"
    INDEX 01 01:19:09
  TRACK 70 AUDIO
    TITLE "0:"
    INDEX 01 01:20:30
  TRACK 71 AUDIO
    TITLE "9:cjc041_5574"
    INDEX 01 01:21:10
  TRACK 72 AUDIO
    TITLE "0:"
    INDEX 01 01:22:21
  TRACK 73 AUDIO
    TITLE "7:cjc041_5575"
    INDEX 01 01:24:00
  TRACK 74 AUDIO
    TITLE "0:"
    INDEX 01 01:25:11
  TRACK 75 AUDIO
    TITLE "8:cjc041_5576"
    INDEX 01 01:25:66
  TRACK 76 AUDIO
    TITLE "0:"
    INDEX 01 01:27:04
  TRACK 77 AUDIO
    TITLE "9:cjc041_5577"
    INDEX 01 01:27:57
  TRACK 78 AUDIO
    TITLE "0:"
    INDEX 01 01:28:67
  TRACK 79 AUDIO
    TITLE "7:cjc041_5578"
    INDEX 01 01:30:44
  TRACK 80 AUDIO
    TITLE "0:"
    INDEX 01 01:31:53
  TRACK 81 AUDIO
    TITLE "8:cjc041_5579"
    INDEX 01 01:32:25
  TRACK 82 AUDIO
    TITLE "0:"
    INDEX 01 01:33:40
  TRACK 83 AUDIO
    TITLE "9:cjc041_5580"
    INDEX 01 01:34:20
  TRACK 84 AUDIO
    TITLE "0:"
    INDEX 01 01:35:29
  TRACK 85 AUDIO
    TITLE "7:cjc041_5581"
    INDEX 01 01:37:11
  TRACK 86 AUDIO
    TITLE "0:"
    INDEX 01 01:38:30
  TRACK 87 AUDIO
    TITLE "8:cjc041_5582"
    INDEX 01 01:39:04
  TRACK 88 AUDIO
    TITLE "0:"
    INDEX 01 01:40:21
  TRACK 89 AUDIO
    TITLE "9:cjc041_5583"
    INDEX 01 01:40:74
  TRACK 90 AUDIO
    TITLE "0:"
    INDEX 01 01:42:20
  TRACK 91 AUDIO
    TITLE "7:cjc041_5584"
    INDEX 01 01:43:74
  TRACK 92 AUDIO
    TITLE "0:"
    INDEX 01 01:45:00
  TRACK 93 AUDIO
    TITLE "8:cjc041_5585"
    INDEX 01 01:45:55
  TRACK 94 AUDIO
    TITLE "0:"
    INDEX 01 01:46:59
  TRACK 95 AUDIO
    TITLE "9:cjc041_5586"
    INDEX 01 01:47:37
  TRACK 96 AUDIO
    TITLE "0:"
    INDEX 01 01:48:42
